<?xml version="1.0" encoding="UTF-8"?>
<svg version="1.1" xmlns="http://www.w3.org/2000/svg" width="1024" height="1024">
<path d="M0 0 C337.92 0 675.84 0 1024 0 C1024 337.92 1024 675.84 1024 1024 C686.08 1024 348.16 1024 0 1024 C0 686.08 0 348.16 0 0 Z " fill="#FEFEFE" transform="translate(0,0)"/>
<path d="M0 0 C337.92 0 675.84 0 1024 0 C1024 329.01 1024 658.02 1024 997 C1019.13243887 994.2185365 1015.25937904 991.78528732 1010.96875 988.36328125 C1004.04927824 982.93489894 996.83646571 978.03045626 989.5 973.1875 C988.84903351 972.75590576 988.19806702 972.32431152 987.52737427 971.87963867 C960.89058894 954.22276331 933.48078751 938.49453523 905 924 C903.98099609 923.47954102 902.96199219 922.95908203 901.91210938 922.42285156 C899.04883009 920.96286262 896.18173029 919.51075387 893.3125 918.0625 C892.09639038 917.44459595 892.09639038 917.44459595 890.85571289 916.81420898 C885.52958396 914.14766619 880.12147899 911.71238173 874.66088867 909.33764648 C873.92224327 909.01549919 873.18359787 908.6933519 872.42256927 908.36144257 C870.61542186 907.57343295 868.80776287 906.7865967 867 906 C866.99910437 904.66872634 866.99910437 904.66872634 866.99819064 903.31055826 C866.96221863 850.59218917 866.90546038 797.87387685 866.82207905 745.15556034 C866.81206279 738.8114708 866.80221846 732.46738099 866.79248047 726.12329102 C866.7905391 724.86041136 866.78859772 723.59753171 866.78659752 722.29638297 C866.75566085 701.90573734 866.73862022 681.51510293 866.72680578 661.12443828 C866.71435088 640.1681768 866.68675226 619.21197381 866.64538693 598.25574929 C866.62037516 585.34709138 866.60687366 572.43853058 866.60857043 559.52984811 C866.60860041 550.65198037 866.59378887 541.77421082 866.56783572 532.89638143 C866.55333214 527.79083273 866.54486213 522.68548529 866.55419731 517.57991982 C866.677573 441.08350136 845.03033617 368.98159971 791 313 C790.35224609 312.32501465 789.70449219 311.6500293 789.03710938 310.95458984 C780.43562977 302.03267086 771.73554707 293.63714327 761.74462891 286.28710938 C759.92369199 284.94370336 758.12359299 283.5752484 756.32421875 282.203125 C720.75999457 255.30507227 677.2533312 237.5469784 633.125 231.3125 C632.36794769 231.19973724 631.61089539 231.08697449 630.8309021 230.97079468 C619.35612379 229.31468765 608.02842638 228.87943404 596.45245361 229.06072426 C594.22750739 229.09379402 592.00269394 229.11609089 589.77758789 229.13529968 C588.28320028 229.14938974 586.78881546 229.16377955 585.29443359 229.1784668 C584.18083277 229.18934468 584.18083277 229.18934468 583.04473495 229.20044231 C579.31630718 229.24550289 575.59598291 229.33155164 571.87091064 229.49868774 C548.43112932 230.5387863 548.43112932 230.5387863 542.65725708 226.26654053 C538.93305907 222.05568436 536.77915757 217.39211011 534.86470032 212.15142822 C533.61010753 209.02992326 531.85479232 206.66529615 529.8125 204 C529.17441406 203.15179688 528.53632812 202.30359375 527.87890625 201.4296875 C527.25886719 200.62789062 526.63882813 199.82609375 526 199 C525.39027344 198.19820312 524.78054688 197.39640625 524.15234375 196.5703125 C508.11287923 175.95284886 488.58150838 158.86303459 465.82373047 146.02929688 C464.63085229 145.35604729 463.44215009 144.67533042 462.25830078 143.98632812 C445.7231364 134.37166184 427.75649947 127.6493624 409 124 C408.0615625 123.80019531 407.123125 123.60039063 406.15625 123.39453125 C403.77587075 122.89359701 401.39316226 122.43547707 399 122 C398.04867188 121.82597656 397.09734375 121.65195313 396.1171875 121.47265625 C372.95639271 117.41507455 349.08602997 117.65174836 326 122 C325.20480957 122.13921875 324.40961914 122.2784375 323.59033203 122.421875 C290.34234292 128.26886515 259.05925233 143.70443541 233 165 C232.43571289 165.45600586 231.87142578 165.91201172 231.29003906 166.38183594 C195.63681158 195.35381164 168.69622362 239.48966433 161 285 C160.80132324 286.13864502 160.80132324 286.13864502 160.59863281 287.30029297 C151.59491741 340.56384531 162.73483464 397.32770156 194.06152344 441.69604492 C203.69789105 454.97657835 215.24013788 470.82675858 229 480 C229.36618346 482.81962073 229.36618346 482.81962073 229.35352612 486.50866127 C229.35529927 487.18800681 229.35707243 487.86735234 229.35889933 488.56728411 C229.36118291 490.86644881 229.34185521 493.16493982 229.32279968 495.46401978 C229.31997977 497.11978914 229.31847951 498.7755612 229.31819278 500.43133295 C229.31355087 504.99895803 229.29007111 509.56632612 229.26365387 514.13387012 C229.23845659 519.05273612 229.23053201 523.97163256 229.22055054 528.89054871 C229.20086177 537.41876078 229.17013593 545.94687645 229.13199425 554.47502518 C229.0768631 566.80541134 229.03825222 579.13580526 229.003723 591.46626429 C228.94725598 611.46974523 228.87735724 631.47315593 228.79907227 651.4765625 C228.72303709 670.9124155 228.65329012 690.34827422 228.59204102 709.78417969 C228.58826585 710.98143947 228.58449068 712.17869925 228.58060112 713.41223963 C228.56170187 719.41831061 228.54292669 725.42438197 228.52421319 731.43045354 C228.36871129 781.2870424 228.1914366 831.14353707 228 881 C227.20064655 881.28380303 226.40129311 881.56760607 225.57771683 881.86000919 C222.56789276 882.92942694 219.55855298 884.00019424 216.54951859 885.0718317 C215.25540003 885.53241878 213.96109834 885.99249168 212.66659927 886.45200825 C202.58249501 890.03219832 192.61839421 893.80321475 182.75 897.9375 C182.04596039 898.22992584 181.34192078 898.52235168 180.61654663 898.82363892 C168.55120372 903.83521536 156.61340023 909.09478503 144.80029297 914.67773438 C141.93563187 916.03039388 139.06385811 917.36710088 136.19140625 918.703125 C122.83196141 924.95805401 109.86136844 931.78131071 97 939 C95.70545898 939.72074707 95.70545898 939.72074707 94.38476562 940.45605469 C63.21958746 957.82623135 32.97822139 977.37327147 5.14916992 999.75048828 C1.09612705 1003 1.09612705 1003 0 1003 C0 672.01 0 341.02 0 0 Z " fill="#000000" transform="translate(0,0)"/>
<path d="M0 0 C5.76171564 -0.02494748 11.52339898 -0.0429758 17.28515625 -0.05493164 C19.24023996 -0.05992238 21.19532 -0.06671734 23.15039062 -0.07543945 C51.58261654 -0.19899463 51.58261654 -0.19899463 65.3125 3.875 C66.33649902 4.17817139 67.36049805 4.48134277 68.41552734 4.79370117 C91.27157714 11.89751399 109.9100624 23.50511594 127 40 C127.86367188 40.80050781 128.72734375 41.60101563 129.6171875 42.42578125 C149.19635947 61.05954149 162.07389596 87.63240072 167 114 C167.1778396 114.87700979 167.3556792 115.75401957 167.53890789 116.65760541 C169.10737727 124.98222299 169.27638794 133.1172218 169.24050903 141.56561279 C169.24138283 143.11039591 169.243137 144.65517873 169.24568737 146.19995999 C169.25013076 150.41427186 169.24219894 154.62848086 169.23213124 158.84277964 C169.22345536 163.39884832 169.22641982 167.9549117 169.22793579 172.51098633 C169.22898203 180.39455274 169.22273274 188.27808593 169.21146011 196.16164398 C169.19517266 207.55979531 169.18999379 218.95793066 169.18748413 230.35609236 C169.18311212 248.85101078 169.16981642 267.3459115 169.15087891 285.84082031 C169.13250732 303.80175692 169.11835708 321.7626887 169.10986328 339.72363281 C169.10933783 340.83164249 169.10881239 341.93965216 169.10827102 343.08123788 C169.10566085 348.64006475 169.10313346 354.19889164 169.10064721 359.75771856 C169.07993008 405.83849129 169.04471801 451.91924473 169 498 C166.91524427 497.68517057 164.83073762 497.36869149 162.74633789 497.05151367 C161.58550186 496.8754509 160.42466583 496.69938812 159.22865295 496.51799011 C155.57387663 495.93163474 152.03788441 495.17084407 148.4375 494.3125 C106.51271726 484.7887657 63.84640035 478.18674042 20.94091797 475.27636719 C17.1873506 475.01313845 13.44051434 474.70259382 9.69140625 474.3828125 C-32.68837854 471.05257811 -76.66168906 471.3213696 -119 475 C-120.99512698 475.15570761 -122.99025732 475.31138014 -124.98553467 475.46514893 C-146.43670129 477.13495441 -167.70623231 479.95337295 -189 483 C-193.62 483.66 -198.24 484.32 -203 485 C-203 380.39 -203 275.78 -203 168 C-196.73 167.67 -190.46 167.34 -184 167 C-179.6667199 166.51493133 -175.4207262 165.99831986 -171.125 165.3125 C-169.48120361 165.05194824 -169.48120361 165.05194824 -167.80419922 164.78613281 C-132.00971121 158.7952932 -97.43260592 142.79746862 -70 119 C-69.19433594 118.30519531 -68.38867188 117.61039062 -67.55859375 116.89453125 C-55.83181422 106.56065972 -45.21189484 95.63795061 -36 83 C-35.59217285 82.44715332 -35.1843457 81.89430664 -34.76416016 81.32470703 C-23.08048938 65.29668543 -13.40557552 46.96131649 -7.60742188 27.97949219 C-6.96813863 25.89616882 -6.2919643 23.82732494 -5.609375 21.7578125 C-3.26230467 14.53891838 -1.39213851 7.46425219 0 0 Z " fill="#000000" transform="translate(565,362)"/>
<path d="M0 0 C0.96357422 -0.00322266 1.92714844 -0.00644531 2.91992188 -0.00976562 C22.64961909 0.13657738 39.54425408 8.06006948 53.80078125 21.5234375 C62.02832328 30.22634862 67.33880776 40.13305418 71.4375 51.3125 C71.7778125 52.21355469 72.118125 53.11460937 72.46875 54.04296875 C78.24694218 71.72530687 73.61956346 91.30733962 65.47167969 107.43017578 C55.3267453 125.89510594 38.60113256 137.41495395 18.7890625 143.41796875 C-0.17552152 147.9566838 -18.62066839 144.62061916 -35.5625 135.3125 C-39.8449011 132.66493847 -43.73675681 129.57909611 -47.5625 126.3125 C-48.21476562 125.77238281 -48.86703125 125.23226562 -49.5390625 124.67578125 C-58.92881052 116.16498225 -64.6502577 104.12778598 -68.5625 92.3125 C-68.90563232 91.38638916 -69.24876465 90.46027832 -69.60229492 89.50610352 C-73.45054568 76.70697608 -72.19770439 58.43825231 -66.5625 46.3125 C-66.088125 45.18457031 -65.61375 44.05664062 -65.125 42.89453125 C-56.7322486 24.39416338 -41.58071843 10.58286242 -22.5625 3.3125 C-14.96077664 0.70463139 -8.00815405 -0.13445524 0 0 Z " fill="#000000" transform="translate(361.5625,251.6875)"/>
<path d="M0 0 C0.66 0.33 1.32 0.66 2 1 C-6.58 9.58 -15.16 18.16 -24 27 C-24 23.39768908 -23.43128853 23.0209684 -21.03515625 20.48828125 C-20.40359619 19.81603516 -19.77203613 19.14378906 -19.12133789 18.45117188 C-18.44192139 17.74541016 -17.76250488 17.03964844 -17.0625 16.3125 C-16.3811499 15.59513672 -15.6997998 14.87777344 -14.99780273 14.13867188 C-10.21994145 9.15189593 -5.33436292 4.3947055 0 0 Z " fill="#BEBEBE" transform="translate(230,166)"/>
</svg>
